<?xml version="1.0" encoding="UTF-8"?>
<svg id="Layer_2" data-name="Layer 2" xmlns="http://www.w3.org/2000/svg" viewBox="0 0 680 423.3">
  <defs>
    <style>
      .cls-1 {
        opacity: .17;
      }

      .cls-2 {
        fill: #9e0000;
      }
    </style>
  </defs>
  <g id="Layer_1-2" data-name="Layer 1">
    <g class="cls-1">
      <path class="cls-2" d="M67.14,313.16h-25.27v44.27h24.7c15.86,0,25.08-7.38,25.08-21.68s-9.5-22.59-24.51-22.59ZM68.74,374.26h-26.85v49.04h50.13l-23.28-49.04ZM639.35,41.45C612.24,13.81,575.57,0,529.33,0c-57.39,0-101.5,21.78-132.33,65.36C375.74,21.78,336.94,0,280.61,0s-99.38,21.52-129.14,64.57V11.95H0v235.22c17.99-9.71,38.57-15.21,60.44-15.21,39.05,0,74,17.55,97.4,45.18v-82.63c0-47.83,17.81-71.75,53.42-71.75,32.95,0,49.42,21,49.42,62.98v237.56h157.05v-228.79c0-46.24,17.54-69.36,52.61-69.36s50.22,22.06,50.22,66.17v231.98h159.44V153.06c0-46.77-13.55-83.97-40.65-111.61Z"/>
      <path class="cls-2" d="M157.84,304.98v118.32h-41.59l-26.21-52.58c13.2-4.79,23.84-17.57,23.84-35.72,0-23.71-16.44-39.22-43.71-39.22H20.58v127.52H0v-157.62c17.42-11.25,38.17-17.77,60.44-17.77,41.84,0,78.3,23.01,97.4,57.07Z"/>
    </g>
  </g>
</svg>