<?xml version="1.0" encoding="UTF-8"?>
<svg id="Layer_1" xmlns="http://www.w3.org/2000/svg" viewBox="0 0 2000 2000">
  <defs>
    <style>
      .cls-1 {
        fill: #a5c3db;
      }

      .cls-2 {
        fill: #aac7dd;
      }

      .cls-3 {
        fill: #9fa4cb;
      }

      .cls-4 {
        fill: #b6cee1;
      }

      .cls-5 {
        fill: #a0a5cc;
      }

      .cls-6 {
        fill: #a1c0d9;
      }

      .cls-7 {
        fill: #abc7dd;
      }

      .cls-8 {
        fill: #a4a9ce;
      }
    </style>
  </defs>
  <path class="cls-6" d="M1004.21,275.06c.26.38.52.77.78,1.15-15.4.06-30.79.13-46.19.19-1.56,0-3.16.12-4.27-1.34h49.67Z"/>
  <path class="cls-6" d="M838.37,276.23l.71-1.16h36.25c-1.1,1.45-2.7,1.34-4.25,1.33-10.9-.05-21.8-.11-32.7-.17Z"/>
  <path class="cls-8" d="M276.4,775.31c-.08.91-.17,1.82-.25,2.73-.6-.97-.31-1.86.25-2.73Z"/>
  <path class="cls-6" d="M281.17,1327.54c.2.63.39,1.26.59,1.89-.61-.5-.78-1.14-.59-1.89Z"/>
  <path class="cls-8" d="M276.16,781.4c.18.3.15.57-.09.82l-.21-.44.29-.38Z"/>
  <path class="cls-1" d="M1725.7,1036.48c.78-3.21.74-6.45.3-9.7-4.05-.55-7.7-2.03-11.18-3.86-.5-.26-.99-.53-1.48-.81-3.05-1.71-5.98-3.64-8.95-5.38-9-5.28-18.27-10.06-27.35-15.16-9.66-5.43-19.71-10.23-29.89-14.77-7.26-3.24-14.17-7.48-21.37-11.01-6.8-3.34-13.74-6.37-20.56-9.66-.95-.46-1.9-.75-2.87-.92-.48-.08-.97-.14-1.46-.16-.49-.03-.99-.03-1.5-.02-.1,2.67-.29,5.34-.3,8.02-.2,55.61-.28,111.23-.61,166.84-.14,23-.82,45.99-1.22,68.99-.05,2.67.13,5.34.2,8.01h0s0,0,0,0c-.07.5-.14,1.01-.2,1.52-.46,1.09-.47,2.18,0,3.27.12.22.13.44.04.64l-.12.2c-.55.92-.55,1.89-.32,2.9h0c1.49.26,2.95.58,4.31,1.06.58.2,1.15.43,1.69.7.45.23.89.48,1.31.77,1.26.85,2.36,1.99,3.24,3.52.82,1.45,2.29,2.17,3.67,2.79,7.2,3.22,12.95,8.66,18.6,13.72,9.87,8.83,20.49,16.76,29.89,26.21,8.58,8.62,17.27,17.29,26.5,25.22,8.46,7.26,15.08,16.14,23.22,23.59,1.16,1.06,2.16,2.22,2.48,3.86.55,2.77,2.58,3.36,5.03,3.24.49-2.95.92-5.9.43-8.9.1-.94.19-1.89.29-2.83.77-1.43.73-3.01.8-4.57.59-12.79,1.2-25.58,1.78-38.37.65-14.26,1.47-28.51,1.89-42.78,1.12-37.46,2.22-74.92,3.03-112.38.44-20.29.26-40.59.35-60.89.06-.47.13-.94.19-1.41.69-2.48.67-4.96.02-7.44-.63-4.68-.78-9.36.09-14.04Z"/>
  <path class="cls-6" d="M1598.6,1598.2c-.35-1.93-.93-3.84-1.77-5.77-1.76-4-3.28-8.22-3.4-12.85-.08-3.02-1.97-5.85-3.16-8.61-5.24-12.2-8.95-25.1-16.43-36.32-2.46-3.68-2.74-8.37-4.85-12.38-6.83-12.98-14.15-25.66-22.33-37.84-.32-.48-.71-.88-1.13-1.25-1.26-1.11-2.76-1.91-3.37-3.57h0c-8.21,10.81-16.34,21.71-25.87,31.41-27.13,27.65-59.86,46.31-96.08,59.24-14.09,5.03-28.42,9.23-43.05,12.39-.84.18-1.6.71-2.4,1.07-.54,5.5,1.04,10.38,3.48,15.33,2.52,5.12,4.27,10.66,5.08,16.4.12.86.89,1.83.27,2.54-3.59,4.08.52,5.98,2.07,8.91,2.35,4.48,7.66,7.87,5.76,14.21-.31,1.04.66,2.5,1.13,3.72,1.11,2.9,2.48,5.74,2.36,8.95-.12,3.19-.21,6.2,3.81,7.38,1.29.38,1.35,2.11,1.57,3.46,1.47,8.94,1.72,18.05,3.86,26.9.32,1.33.05,2.65-.8,3.8-.65.89-1.75,1.92-1.22,2.94,2.01,3.89-.26,6.03-2.91,8.18-.24.19-.11.85-.15,1.29,8.02-.9,15.78-3.1,23.55-5.1,35.22-9.05,68.47-23.08,100.99-39.18,29.4-14.55,53.21-35.87,75.43-59.38h0c.01-.51.01-1.01,0-1.51-.03-1.5-.17-2.96-.43-4.41Z"/>
  <path class="cls-4" d="M1078.57,1672.94c-2.99-7.54-7.16-14.36-11.28-21.19-5.61-9.31-11.27-18.74-18.15-27.09-6.75-8.2-13.22-16.88-21.96-23.24-.91-.66-1.65-1.31-2.15-2.07-.25-.38-.43-.79-.55-1.25s-.16-.96-.12-1.52h0c-7.82-.88-15.61.35-23.42.33-53.62-.12-107.23,0-160.85-.14-10.7-.03-21.41-.9-32.12-.21-1.77.99-3.61.81-5.45.59-.26-.03-.53-.06-.79-.1-.3-.03-.6-.07-.9-.09-.73-.14-1.46-.29-2.19-.44.03.52.11.96.26,1.35.27.72.75,1.24,1.47,1.6.24.12.5.23.79.32.23.08.48.14.74.2,6.13,1.38,11.41,4.86,17.01,7.51,11.73,5.55,21.3,14.51,32.36,21.14,13.07,7.83,23.7,18.7,35.52,28.06,5.25,4.16,10.42,8.97,13.39,15.52,1.64,3.62,5.57,5.57,7.72,9.05,1.4,2.27,2.99,4.35,3.82,6.96.53,1.67,1.22,3.56,2.45,4.68,7.81,7.07,11.62,16.31,14.55,26.06.58,1.92,1.09,3.85,1.64,5.78,26.27.03,52.54.07,78.82.1,17.58.02,35.17.02,52.75.03,10.71-1.05,21.52.19,32.21-1.39-.1-5.18-1.08-10.16-2.42-15.07-.8-2.95-1.74-5.87-2.69-8.8-2.97-9.11-6.95-17.79-10.47-26.67Z"/>
  <path class="cls-6" d="M1399.2,1706.48c2.65-2.14,4.93-4.29,2.91-8.18-.53-1.03.57-2.06,1.22-2.94.85-1.15,1.12-2.48.8-3.8-2.14-8.84-2.39-17.96-3.86-26.9-.22-1.36-.28-3.08-1.57-3.46-4.02-1.19-3.94-4.19-3.81-7.38.12-3.21-1.25-6.05-2.36-8.95-.47-1.23-1.44-2.69-1.13-3.72,1.9-6.34-3.4-9.73-5.76-14.21-1.54-2.94-5.66-4.83-2.07-8.91.62-.7-.15-1.68-.27-2.54-.81-5.74-2.56-11.28-5.08-16.4-2.44-4.95-4.02-9.83-3.48-15.33-11.61,1.94-23.24,3.79-34.82,5.87-7.28,1.31-14.65,1.61-21.97,1.9-24.08.97-48.18,1.13-72.25,2.21-18.29.81-36.59.33-54.86,1.27-.15.96-.03,1.8.25,2.57.06.15.12.31.19.45.14.3.29.59.47.87.17.28.36.55.56.82.58.81,1.24,1.58,1.76,2.38,7.63,11.74,14.16,24.15,20.01,36.77,8.3,17.92,14.77,36.65,18.27,56.19,1.43,8.01,4.37,15.75,4.32,24.03,0,.8.68,1.61,1.05,2.42,6.25.68,12.46-.4,18.7-.5,33-.54,65.97-1.56,98.75-5.69,14.73-1.86,29.49-3.68,43.89-7.53.04-.44-.09-1.1.15-1.29Z"/>
  <path class="cls-3" d="M1703.41,710.33c-11.8-3.9-23.42-8.36-35.29-12.09-11.85-3.73-23.57-7.86-35.4-11.65-12.02-3.85-24.08-7.56-36.16-11.19-1.24-.37-2.61-.32-3.97-.31-.45,0-.9,0-1.35-.02,2.13,25.33,4.24,50.67,4.96,76.1.72,25.43,1.75,50.86,1.64,76.31,0,2,.31,3.99.48,5.99.33.03.68.04,1.03.03.18,0,.35,0,.53,0,.35,0,.7,0,1.03.03.5.04.96.15,1.35.38,7.69,4.65,16.61,6.21,24.66,10.02,7.97,3.77,16.38,6.73,24.81,9.36,3.02.94,6.04,2.14,8.45,3.68,10.05,6.43,21.9,8.65,32.18,14.42,8.41.27,13.54,8.1,21.69,9.31,2.84.42,5.71,2.47,7.26,5.46.78,1.52,2.08,2.28,3.8,2.33.06-2.23.19-4.45.17-6.68-.15-20.75-.67-41.48-1.09-62.22-.7-33.9-2.15-67.77-3.28-101.65-.04-1.31-.48-2.6-.73-3.9-6,.61-11.38-1.93-16.79-3.72Z"/>
  <path class="cls-3" d="M1651.78,549.18c-13.7-3.56-27.29-7.56-41.02-11.02-18.08-4.55-36.21-8.95-54.41-12.94-.38-.08-.77-.19-1.17-.31-.59-.18-1.21-.38-1.83-.56-.29-.08-.57-.16-.86-.24-2.02-.5-4.12-.61-6.1,1.09,4.96,9.15,10.17,18.18,14.82,27.48,10.65,21.35,16.78,44.19,21.64,67.42,3.8,18.16,5.9,36.59,8.39,54.95h0c.44.02.9.02,1.35.02,1.36-.01,2.73-.07,3.97.31,12.08,3.64,24.15,7.34,36.16,11.19,11.83,3.79,23.55,7.92,35.4,11.65,11.87,3.73,23.49,8.2,35.29,12.09,5.4,1.78,10.79,4.33,16.79,3.72.16-.87.49-1.75.44-2.61-1.11-17.61-2.24-35.23-3.41-52.84-1.22-18.51-2.89-36.96-6.8-55.15-2.98-13.88-6.28-27.68-10.78-41.16-2.02.04-3.94-.2-5.92-.82-13.9-4.37-27.84-8.62-41.95-12.29Z"/>
  <path class="cls-3" d="M1591.25,675.07h0c.44.02.9.02,1.35.02-.45,0-.9,0-1.35-.02Z"/>
  <path class="cls-2" d="M1711.79,1326.84c-.33-1.64-1.33-2.8-2.48-3.86-8.14-7.46-14.76-16.33-23.22-23.59-9.23-7.92-17.92-16.59-26.5-25.22-9.41-9.45-20.03-17.38-29.89-26.21-5.65-5.05-11.4-10.49-18.6-13.72-1.38-.62-2.85-1.34-3.67-2.79-.87-1.54-1.97-2.67-3.24-3.52-.42-.28-.86-.54-1.31-.77-.54-.27-1.11-.5-1.69-.7-1.36-.48-2.82-.81-4.31-1.06-.5,11.37-1.04,22.73-1.5,34.1-1.43,35.25-4.3,70.38-9.02,105.35.35,0,.68.03,1,.08s.63.13.93.23.58.22.85.36c.81.41,1.52.99,2.13,1.67.41.45.77.94,1.1,1.45,4.37,6.83,10.8,11.81,15.83,18.09,10.29,12.84,20.57,25.62,30.2,38.99,6.52,9.05,12.7,18.3,18.45,27.76,4.83,7.95,10.1,15.68,14.18,24.16,2.32,4.82,4.05,10.45,8.98,13.75,9.01-17.29,15.55-35.55,20.94-54.23,6.9-23.9,10.64-48.4,13.22-73.06,1.18-11.3,2.75-22.61,2.66-34.03-2.45.12-4.48-.46-5.03-3.24Z"/>
  <path class="cls-2" d="M1596.88,1225.4h0c1.49.26,2.95.58,4.31,1.06-1.36-.48-2.82-.81-4.31-1.06Z"/>
  <path class="cls-2" d="M1601.19,1226.46c.58.2,1.15.43,1.69.7-.54-.27-1.11-.5-1.69-.7Z"/>
  <path class="cls-7" d="M1232.34,1695.04c-3.49-19.54-9.96-38.27-18.27-56.19-5.85-12.62-12.38-25.03-20.01-36.77-.52-.81-1.18-1.57-1.76-2.38-.19-.27-.38-.54-.56-.82-.17-.28-.33-.57-.47-.87-.07-.15-.13-.3-.19-.45-.28-.77-.4-1.61-.25-2.57-8.24,0-16.49-.27-24.72.03-30.97,1.13-61.96.68-92.94,1.09-2.44.03-4.88.27-7.32.41-.09.11-.18.19-.28.25-.19.11-.37.12-.56.01-.1-.05-.19-.13-.29-.24-1.87-.45-3.73-.45-5.6.01-.09.1-.18.18-.27.23-.09.05-.18.08-.27.08-.09,0-.18-.02-.28-.07-.09-.05-.19-.12-.28-.22-11.22-.56-22.44-.33-33.67,0-.04.56,0,1.07.12,1.52s.3.87.55,1.25c.5.76,1.24,1.41,2.15,2.07,8.74,6.36,15.21,15.05,21.96,23.24,6.88,8.36,12.54,17.78,18.15,27.09,4.12,6.83,8.29,13.64,11.28,21.19,3.52,8.88,7.5,17.55,10.47,26.67.95,2.93,1.89,5.85,2.69,8.8,1.34,4.91,2.32,9.89,2.42,15.07,2.22.07,4.44.21,6.67.19,34.74-.32,69.48-.14,104.2-1.4,10.89-.4,21.81.2,32.69-.77-.37-.81-1.06-1.61-1.05-2.42.04-8.28-2.89-16.03-4.32-24.03Z"/>
  <path class="cls-7" d="M1024.49,1598.1c-.11-.46-.16-.96-.12-1.52h0c-.04.56,0,1.07.12,1.52Z"/>
  <path class="cls-8" d="M1721.33,886.17c-1.55-3-4.42-5.04-7.26-5.46-8.15-1.22-13.28-9.05-21.69-9.31-10.28-5.77-22.13-7.99-32.18-14.42-2.4-1.54-5.43-2.74-8.45-3.68-8.43-2.63-16.84-5.59-24.81-9.36-8.05-3.81-16.97-5.38-24.66-10.02-.39-.23-.85-.34-1.35-.38-.33-.03-.68-.03-1.03-.03-.18,0-.35,0-.53,0-.35,0-.7,0-1.03-.03.14,15.35.33,30.71.42,46.06.15,26.28.24,52.56.37,78.83.01,2.22.19,4.44.29,6.66.51-.02,1-.01,1.5.02s.98.08,1.46.16c.97.17,1.92.46,2.87.92,6.82,3.3,13.76,6.33,20.56,9.66,7.2,3.53,14.11,7.78,21.37,11.01,10.18,4.54,20.23,9.34,29.89,14.77,9.08,5.1,18.35,9.88,27.35,15.16,2.97,1.74,5.9,3.67,8.95,5.38.49.28.98.54,1.48.81,3.48,1.84,7.13,3.32,11.18,3.86.1-.88.29-1.77.28-2.65-.06-32.53-.06-65.05-.25-97.57-.07-12.69-.59-25.37-.91-38.05-1.71-.04-3.01-.81-3.8-2.33Z"/>
  <path class="cls-6" d="M1671.03,1477.65c-4.08-8.48-9.35-16.21-14.18-24.16-5.75-9.47-11.93-18.72-18.45-27.76-9.64-13.37-19.91-26.16-30.2-38.99-5.03-6.28-11.46-11.26-15.83-18.09-.33-.51-.69-1-1.1-1.45-.61-.67-1.32-1.26-2.13-1.67-.27-.14-.55-.26-.85-.36s-.6-.18-.93-.23-.66-.08-1-.08h0s0,0,0,0c-3.11,13.67-5.64,27.45-9.96,40.85-7.98,24.78-18.4,48.38-32.34,70.4-.71,1.12-1.27,2.34-1.91,3.52.61,1.67,2.11,2.47,3.37,3.57.42.37.81.77,1.13,1.25,8.19,12.18,15.5,24.86,22.33,37.84,2.11,4.01,2.4,8.69,4.85,12.38,7.48,11.22,11.18,24.12,16.43,36.32,1.19,2.76,3.08,5.59,3.16,8.61.12,4.63,1.65,8.85,3.4,12.85.84,1.93,1.42,3.83,1.77,5.77.26,1.45.4,2.91.43,4.41.01.5,0,1,0,1.51,10.69-9.52,20.19-20.21,29.96-30.63,22.48-23.97,38.22-52.11,51.03-82.08-4.92-3.3-6.66-8.93-8.98-13.75Z"/>
  <path class="cls-6" d="M1598.6,1598.2c.26,1.45.4,2.91.43,4.41-.03-1.5-.17-2.96-.43-4.41Z"/>
  <path class="cls-6" d="M1545.52,1483.19c-1.26-1.11-2.76-1.91-3.37-3.57.61,1.67,2.11,2.47,3.37,3.57Z"/>
  <path class="cls-6" d="M1587.36,1364.94c-.32-.05-.66-.08-1-.08h0c.35,0,.68.03,1,.08Z"/>
  <path class="cls-3" d="M1725.7,1036.48c-.87,4.67-.72,9.35-.09,14.04.74-4.67.79-9.35.09-14.04Z"/>
  <path class="cls-2" d="M1717.54,1318.36c-.09.94-.19,1.89-.29,2.83.69-.88.85-1.82.29-2.83Z"/>
  <path class="cls-3" d="M1725.75,1058.96c0-.33-.1-.67-.16-1-.06.47-.13.94-.19,1.41.12-.14.34-.27.34-.41Z"/>
  <path class="cls-6" d="M914.19,1692.91c-1.23-1.12-1.93-3.01-2.45-4.68-.83-2.61-2.42-4.69-3.82-6.96-2.15-3.48-6.08-5.43-7.72-9.05-2.97-6.55-8.14-11.36-13.39-15.52-11.83-9.36-22.46-20.23-35.52-28.06-11.06-6.62-20.63-15.59-32.36-21.14-5.6-2.65-10.88-6.12-17.01-7.51-.27-.06-.51-.13-.74-.2-.29-.09-.55-.2-.79-.32-.71-.37-1.19-.88-1.47-1.6-.15-.39-.23-.83-.26-1.35-7.77-1.15-15.6-.51-23.39-.68-25.43-.53-50.82-1.63-76.19-3.56-22.03-1.68-44-3.88-65.78-7.47-31.2-5.14-61.29-13.93-89.21-29.23-.96-.53-2.04-.86-3.06-1.28h0c.01.27.01.53,0,.77h0c-.02.49-.09.93-.2,1.31s-.26.73-.45,1.03c-.19.3-.41.56-.67.78-.25.22-.54.41-.85.57-.31.16-.64.29-1,.4-.89.27-1.9.39-2.94.46-7,.47-14,1.11-21.01,1.29-4.49.11-8.91.23-13.09,2.05-1.7.74-3.48.8-5.26.69-6.3-.39-12.38.77-18.45,2.28-4.75,1.18-9.66.18-14.54,1.53-15.81,4.35-32.29,5.75-48.1,9.91-8.05,2.12-16.55,2.96-24.16,6.64-3.45,1.67-7.02.84-10.53,1.19,2.28,3.61,5.24,6.65,8.16,9.71,34.72,36.3,75.27,64.42,120.78,85.42,44.11,20.36,91.12,29.46,139.01,34.9,17.53,1.99,35.11,3.34,52.72,4.51,28.1,1.86,56.21,3.16,84.36,3.61,18.99.3,37.97.61,56.94,1.54,20.21.02,40.42.07,60.64.05,9.32,0,18.65-.13,27.97-.2-.54-1.93-1.06-3.86-1.64-5.78-2.93-9.75-6.74-18.98-14.55-26.06Z"/>
  <path class="cls-6" d="M800.38,1599.47c-.71-.37-1.19-.88-1.47-1.6.27.72.75,1.24,1.47,1.6Z"/>
  <path class="cls-6" d="M800.38,1599.47c.24.12.5.23.79.32-.29-.09-.55-.2-.79-.32Z"/>
  <path class="cls-6" d="M374.07,1175.73c5.23-.98,10.59-1.48,15.71-2.85,1.58-.42,3.15-.69,4.72-.85.65-.07,1.31-.12,1.96-.16,1.96-.12,3.93-.12,5.91-.13.06-12.47.17-24.93.18-37.4.02-32.07,0-64.14-.03-96.2,0-2.44-.18-4.89-.27-7.33h0c-2.65,1.45-5.57,1.93-8.5,2.39-.73.11-1.46.23-2.19.35-.73.13-1.45.27-2.17.43-1.43.34-2.84.79-4.18,1.47-1.88.96-3.95.86-5.92.65-4.56-.48-9.08.52-13.1,1.96-4.58,1.64-9.01,2.24-13.7,2.11-2.04-.06-3.97.29-5.87,1.07-1.44.59-2.94,1.13-4.46,1.41-12.99,2.36-26.16,4.02-38.93,7.25-6.38,1.62-12.58,2.2-19,2.51-3.5.17-6.39,3.35-10.23,2.53-.07,1.11-.21,2.22-.21,3.32.14,35.42-.16,70.85,1.03,106.26.35,10.46.49,20.92.73,31.39,19.32-4.16,38.62-8.44,57.97-12.43,13.47-2.78,27.01-5.19,40.53-7.73Z"/>
  <path class="cls-3" d="M301.2,613.64c12.41-2.22,24.86-4.18,37.2-6.8,4.14-.88,8.42-.53,12.63-.9,10.83-.96,21.03-5.14,32.16-5.02,6.92.07,13.96-2.28,21.02-3.06,5.95-.66,11.91-1.22,17.86-1.83h0s0,0,0,0c2.43-7.17,4.84-14.34,7.31-21.5,9.22-26.8,24-50.19,42.47-71.61,7.71-8.95,16.83-16.37,24.57-25.19h0s0,0,0,0c-.98-1.72-2.34-2.55-3.81-2.8-.21-.03-.42-.06-.64-.07-1.03-.06-2.11.14-3.15.5-9.21,3.18-18.92,2.77-28.33,3.38-9.78.64-19.24,3.03-29.05,3.58-9.38.53-18.83,2.48-28.26,3.76-5.46.74-11.02,1.24-16.48,1.88-5.99.7-11.69,2.84-17.63,3.1-6.26.27-12.29,1.49-18.43,2.42-8.43,1.29-16.79,4.7-25.53,1.72-.64,1.17-1.35,2.3-1.91,3.5-11.03,24.15-19.95,49.05-26.47,74.79-3.33,13.14-6.58,26.31-7.95,39.85,1.54.55,3.06.84,4.59.94,2.55.18,5.11-.15,7.82-.64Z"/>
  <path class="cls-3" d="M492.59,474.92c1.48.25,2.83,1.08,3.81,2.8h0c-.98-1.72-2.34-2.55-3.81-2.8Z"/>
  <path class="cls-1" d="M284.25,1052.4c6.42-.31,12.62-.89,19-2.51,12.77-3.23,25.94-4.89,38.93-7.25,1.52-.28,3.02-.82,4.46-1.41,1.9-.78,3.83-1.13,5.87-1.07,4.69.14,9.12-.47,13.7-2.11,4.02-1.44,8.54-2.44,13.1-1.96,1.97.21,4.04.31,5.92-.65,1.34-.68,2.74-1.13,4.18-1.47.72-.17,1.44-.31,2.17-.43.73-.13,1.46-.24,2.19-.35,2.93-.46,5.85-.93,8.5-2.39.12-9.79.27-19.58.34-29.36.2-27.16.39-54.32.54-81.48.02-2.89-.19-5.77-.29-8.66-6.67.99-13.39,1.57-20.08,2.39-1.67.2-3.34.42-5.01.67-2.5.37-5,.79-7.48,1.31-1.65.34-3.3.73-4.95,1.16-.82.22-1.64.45-2.46.69-4.59,1.37-9.68.62-14.49,1.75-6.23,1.47-12.65,1.75-18.92,3.48-5.25,1.45-10.87,1.83-16.32,2.81-13.05,2.35-26.17,4.37-39.13,7.2-.1,1.55-.28,3.1-.28,4.65-.04,36.06-.06,72.12-.06,108.18,0,3.11.22,6.22.34,9.33,3.84.82,6.73-2.35,10.23-2.53Z"/>
  <path class="cls-1" d="M402.26,1030.8h0c-2.65,1.45-5.57,1.93-8.5,2.39,2.93-.46,5.85-.93,8.5-2.39Z"/>
  <path class="cls-8" d="M329.48,922.75c6.26-1.73,12.69-2.01,18.92-3.48,4.81-1.14,9.9-.38,14.49-1.75.82-.24,1.64-.47,2.46-.69,1.64-.43,3.29-.82,4.95-1.16,2.48-.51,4.98-.94,7.48-1.31,1.67-.24,3.34-.46,5.01-.67,6.69-.82,13.41-1.4,20.08-2.39,1.52-6.82.88-13.77.93-20.64.21-30.06.78-60.11,1.54-90.15.05-1.99-.16-3.99-.25-5.99-7.91.97-15.82,1.93-23.72,2.91-8.77,1.08-17.24,3.99-26.24,3.98-3.67,0-7.3,1.92-11.02,2.4-16.91,2.19-33.66,5.29-50.42,8.34-4.59.83-9.07,2.18-13.7,2.54-.77.06-1.55.09-2.33.09-.78,0-1.57-.04-2.36-.12-.41,15.34-1.06,30.68-1.19,46.02-.2,24.03-.06,48.06-.07,72.09,12.97-2.83,26.08-4.85,39.13-7.2,5.45-.98,11.07-1.35,16.32-2.81Z"/>
  <path class="cls-6" d="M334.78,1300.49c17.22-4.17,34.73-6.91,51.94-11.19,2.97-.74,6.02-1.3,9.1-1.67,2.31-.28,4.65-.44,6.99-.48.78-.01,1.56-.01,2.34,0-.42-15.56-.72-31.13-1.28-46.69-.78-21.58-1.1-43.16-1.2-64.75,0-1.33-.19-2.66-.29-3.98h0c-1.98,0-3.95,0-5.91.13-.65.04-1.31.09-1.96.16-1.57.17-3.14.43-4.72.85-5.12,1.37-10.47,1.87-15.71,2.85-13.52,2.53-27.06,4.95-40.53,7.73-19.35,4-38.65,8.27-57.97,12.43-.07,2.89-.28,5.79-.18,8.67.91,26.72,1.59,53.46,2.96,80.16.52,10.2.15,20.52,2.2,30.63,8.13-4.19,17.09-6.26,25.77-8.46,9.38-2.37,19.02-4.12,28.47-6.4Z"/>
  <path class="cls-6" d="M402.38,1171.73h0c-1.98,0-3.95,0-5.91.13,1.96-.12,3.93-.12,5.91-.13Z"/>
  <path class="cls-5" d="M279.96,814.68c4.63-.36,9.12-1.71,13.7-2.54,16.76-3.04,33.51-6.15,50.42-8.34,3.72-.48,7.35-2.41,11.02-2.4,9,.02,17.47-2.89,26.24-3.98,7.91-.98,15.81-1.94,23.72-2.91.52-15.1,1.1-30.2,1.56-45.3.66-21.55,1.24-43.1,1.85-64.65-9.13,1.75-18.31,3.09-27.51,4.41-5.51.79-11.03,1.57-16.54,2.42-10.29,1.59-20.64,2.98-30.88,5-8.7,1.72-17.57,2.56-26.27,4.26-7.81,1.53-15.94,1.46-23.4,4.8-1.34.6-3.07.34-4.62.48-1.98,13.93-1.51,28.01-2.48,42-.63,9.09-.29,18.25-.39,27.37-.08.91-.17,1.82-.25,2.73-.46,1.12-.46,2.24,0,3.36.18.3.15.57-.09.82-1.34,10.78-.81,21.61-.79,32.43.79.08,1.58.11,2.36.12.78,0,1.56-.03,2.33-.09Z"/>
  <path class="cls-4" d="M390.32,1584.01c7.61-3.68,16.11-4.53,24.16-6.64,15.81-4.16,32.29-5.56,48.1-9.91,4.88-1.34,9.8-.35,14.54-1.53,6.07-1.51,12.15-2.67,18.45-2.28,1.78.11,3.56.05,5.26-.69,4.18-1.83,8.59-1.94,13.09-2.05,7.01-.18,14.01-.81,21.01-1.29,1.05-.07,2.06-.19,2.94-.46.35-.11.69-.24,1-.4.31-.16.59-.35.85-.57.25-.22.48-.48.67-.78.19-.3.34-.64.45-1.03s.18-.82.2-1.31h0c.01-.25.01-.5,0-.77-34.63-20-64.81-44.85-86.39-79.1-.94-1.49-2.1-2.83-3.16-4.24-5.16,3.93-11.56,2.84-17.33,3.78-8.09,1.32-15.97,3.51-24.05,4.76-14.22,2.2-27.96,6.49-42.04,9.38-12.56,2.57-24.77,6.83-37.13,10.36-2.13.61-4.18,1.56-6.46,1.5.25,2.29,1.53,4.16,2.51,6.14,8.5,17.19,18.21,33.68,29.38,49.27,7.25,10.11,14.52,20.24,23.41,29.05,3.51-.35,7.08.48,10.53-1.19Z"/>
  <path class="cls-4" d="M541.03,1554.3h0c.01.27.01.53,0,.77.01-.24.01-.5,0-.77Z"/>
  <path class="cls-6" d="M316.97,1411.66c5.32-1.47,10.62-3.04,15.92-4.57,11.71-3.37,23.74-5.19,35.52-8.21,15.43-3.96,31.22-6.55,46.84-9.78.65-.13,1.28-.35,1.9-.59.31-.12.62-.24.94-.37.31-.12.62-.24.94-.35h0s0,0,0,0c0-1.95-.17-3.87-1.16-5.61-.23-.36-.33-.76-.3-1.18-2.17-4.52-1.53-9.53-2.43-14.28-4.23-22.17-7.09-44.54-8.71-67.07-.08-1.1-.39-2.19-.59-3.29-.11-.28-.24-.56-.3-.85-.03-.13.09-.29.15-.43-.17-2.64-.34-5.29-.52-7.93h0c-.78-.01-1.56-.01-2.34,0-2.34.04-4.67.2-6.99.48-3.09.37-6.13.93-9.1,1.67-17.2,4.27-34.72,7.02-51.94,11.19-9.45,2.28-19.08,4.03-28.47,6.4-8.68,2.19-17.64,4.26-25.77,8.46-.2,4.08-.1,8.15.62,12.19.2.63.39,1.26.59,1.89-.04,1.55-.16,3.1-.1,4.64.47,11.79,1.94,23.5,3.43,35.19,1.15,9.01,2,18.12,4.64,26.89.22.33.29.68.21,1.06-.05,1.43.02,2.84.72,4.14.18.47.36.94.53,1.41-.25,4.71,1.81,8.88,3.07,13.24,8.02.98,15.28-2.28,22.7-4.33Z"/>
  <path class="cls-3" d="M307.29,700.65c8.7-1.7,17.57-2.54,26.27-4.26,10.24-2.03,20.59-3.41,30.88-5,5.5-.85,11.02-1.63,16.54-2.42,9.19-1.31,18.38-2.65,27.51-4.41h0s0,0,0,0c1.58-9.93,1.09-20.01,2.22-29.97,1.17-10.25,1.34-20.6,4.25-30.64,2.68-9.22,4.76-18.61,7.11-27.92-5.95.61-11.91,1.17-17.86,1.83-7.06.78-14.1,3.14-21.02,3.06-11.12-.12-21.32,4.06-32.16,5.02-4.21.37-8.49.02-12.63.9-12.34,2.63-24.79,4.58-37.2,6.8-2.71.49-5.28.82-7.82.64-1.53-.11-3.05-.4-4.59-.94-.49,2.39-1.06,4.77-1.45,7.17-2.99,18.64-4.92,37.41-6.42,56.21-.78,9.71-2.24,19.42-1.65,29.23,1.55-.14,3.28.12,4.62-.48,7.46-3.34,15.6-3.28,23.4-4.8Z"/>
  <path class="cls-3" d="M404.2,597.86c5.95-.66,11.91-1.22,17.86-1.83h0c-5.95.61-11.91,1.17-17.86,1.83Z"/>
  <path class="cls-3" d="M380.97,688.97c9.19-1.31,18.38-2.65,27.51-4.41h0c-9.13,1.75-18.31,3.09-27.51,4.41Z"/>
  <path class="cls-7" d="M368.07,1488.87c14.07-2.89,27.82-7.18,42.04-9.38,8.07-1.25,15.96-3.44,24.05-4.76,5.77-.94,12.17.15,17.33-3.78-7.36-13.77-14.51-27.62-19.78-42.38-4.43-12.4-8.31-24.95-11.44-37.74-.27-1.09-.42-2.19-1.24-3.03-.31.11-.63.23-.94.35-.31.12-.62.25-.94.37-.62.24-1.25.45-1.9.59-15.62,3.22-31.41,5.81-46.84,9.78-11.78,3.02-23.81,4.84-35.52,8.21-5.3,1.52-10.6,3.1-15.92,4.57-7.42,2.05-14.68,5.31-22.7,4.33,2.1,11.42,5.73,22.44,9.36,33.42,5.81,17.55,12.07,34.95,20.84,51.32,2.29.06,4.33-.89,6.46-1.5,12.36-3.54,24.57-7.79,37.13-10.36Z"/>
  <path class="cls-7" d="M418.08,1388.15c.31-.12.62-.24.94-.35h0c-.31.11-.63.23-.94.35Z"/>
  <path class="cls-4" d="M289.74,1396.15c-.34.41-.27.76.21,1.06.08-.38,0-.74-.21-1.06Z"/>
  <path class="cls-4" d="M291.2,1402.76c-.18-.47-.36-.94-.53-1.41-.22.62.03,1.06.53,1.41Z"/>
  <path class="cls-2" d="M1597.29,1221.66l-.29.4.21.45.12-.2c.09-.2.08-.42-.04-.64Z"/>
  <path class="cls-2" d="M1597.12,1217.32c0,.36.1.71.16,1.07.07-.51.14-1.01.2-1.52-.13.15-.36.3-.36.45Z"/>
  <path class="cls-2" d="M1597.49,1216.87h0c-.07.51-.13,1.01-.2,1.52.07-.51.14-1.01.2-1.52Z"/>
  <path class="cls-6" d="M807.99,1596.55c-2.42-.58-4.83-.92-7.15.4.3.02.6.06.9.09.26.03.53.06.79.1,1.84.22,3.68.4,5.46-.59Z"/>
  <path class="cls-4" d="M1058.04,1596.58c.09.1.19.17.28.22.09.05.19.07.28.07s.18-.03.27-.08c.09-.05.18-.13.27-.23h0c-.38-.29-.75-.28-1.11.03Z"/>
  <path class="cls-4" d="M1058.6,1596.87c-.09,0-.18-.02-.28-.07.09.05.19.07.28.07Z"/>
  <path class="cls-4" d="M1058.88,1596.78c.09-.05.18-.13.27-.23h0c-.09.1-.18.18-.27.23Z"/>
  <path class="cls-4" d="M1064.74,1596.54c.1.11.19.19.29.24.19.1.38.1.56-.01.09-.06.19-.14.28-.25h0c-.38-.27-.76-.26-1.13.02Z"/>
  <path class="cls-6" d="M406.1,1295.96c-.09-.31-.28-.58-.43-.87-.05.15-.17.31-.15.43.06.29.2.57.3.85.1-.14.3-.31.27-.41Z"/>
  <path class="cls-7" d="M418.08,1381.78c-.13-.28-.34-.52-.52-.77-.03.43.07.82.3,1.18.08-.14.26-.33.22-.41Z"/>
  <path class="cls-5" d="M744.22,743.55c7.99-.41,15.95-.01,24-1.07,8.88-1.17,17.99-.15,26.98.84,3.75.41,7.63-.34,11.31-.13,7.66.44,15.27-2.58,22.93-.03,1.83.61,3.98.35,5.99.36,10.06.03,20.13.22,30.18-.04,11.39-.3,22.68.71,33.94,2.12,2.55.32,4.73-1.05,7.23-.75,13.92,1.68,28.01.45,41.91,2.58,1.75.27,3.57.13,5.36.12,9.8-.05,19.5,1.08,29.17,2.52,1.1.16,2.24.25,3.34.15,10.96-.94,21.91.47,32.65,1.7,14.53,1.67,29.19,2.15,43.64,4.77,5.83,1.05,11.94.48,17.91,1.53,12.46,2.2,25.15,2.71,37.65,4.41,8.29,1.12,16.66,2.54,24.95,3.81,6.42.99,13.01,1.61,19.49,2.61,12.04,1.86,24.29,2.49,36.02,6.08,3.71,1.13,7.52.86,11.23,1.25,12.13,1.3,23.78,4.96,35.9,6.47,7.79.97,15.67,2.84,23.46,4.57,10.83,2.4,21.71,4.57,32.57,6.85,2.28.48,4.03.11,4.34-2.64-10.64-14.42-22.05-28.18-33.78-41.75-11.46-13.25-24.02-25.15-37.52-36.08-57.75-46.79-123.53-74.29-197.6-81.99-33.37-3.47-66.55-2.3-99.49,3.39-59.37,10.25-113.17,33.66-161.24,70.03-14.59,11.04-28.83,22.52-40.89,36.42,2.62,1.38,5.36,2.07,8.37,1.91Z"/>
  <path class="cls-8" d="M677.94,847.03c1.07-.42,2.66.09,3.89.51,1.74.6,3.55,1,5.26.59,10.36-2.46,20.87-.68,31.29-1.27,6.33-.36,12.72.08,19-1.15,1.36-.27,2.61.23,3.92.53,4.39,1.02,8.84,1.12,13.2-.08,2.67-.73,5.21-.74,7.89-.06,5.26,1.34,10.58,1.03,15.89.23,1.09-.17,2.26-.87,3.22-.63,7.61,1.9,15.37.37,23.03,1.13.52.05,1.02.13,1.51.24.72.16,1.42.37,2.11.61h.03c.7.25,1.38.53,2.08.81h0s0,0,0,0c11.57-13.35,23.67-26.15,37.57-37.17,34.36-27.23,73.08-44.43,116.54-50.55,62.54-8.81,120.41,3.81,172.99,38.96,32.92,22.01,58.59,50.8,77.5,85.6.84,1.55,1.85,3.01,2.78,4.51,2.44.04,4.82.2,7.26.76,13.16,3.03,26.37,5.91,39.61,8.56,3.1.62,5.74,2.2,8.84,2.87,14.03,3.04,27.99,6.32,41.82,10.32,11.4,3.3,22.5,8.43,34.78,8.55,2.13.02,4.23,1.32,6.37,1.92,2.39.67,4.83,1.34,6.63-1.25-.32-1.97-.51-3.97-.97-5.91-7.54-32.04-19.23-62.5-35.06-91.34-6.2-11.29-12.46-22.59-20.54-32.71-.31,2.75-2.05,3.11-4.34,2.64-10.86-2.28-21.74-4.44-32.57-6.85-7.79-1.73-15.67-3.6-23.46-4.57-12.12-1.51-23.77-5.17-35.9-6.47-3.71-.4-7.52-.12-11.23-1.25-11.73-3.58-23.98-4.21-36.02-6.08-6.48-1-13.07-1.62-19.49-2.61-8.29-1.27-16.66-2.68-24.95-3.81-12.5-1.7-25.19-2.21-37.65-4.41-5.97-1.06-12.08-.48-17.91-1.53-14.45-2.62-29.11-3.09-43.64-4.77-10.74-1.24-21.7-2.65-32.65-1.7-1.1.09-2.24.01-3.34-.15-9.67-1.44-19.37-2.57-29.17-2.52-1.79,0-3.61.14-5.36-.12-13.9-2.14-28-.91-41.91-2.58-2.5-.3-4.69,1.07-7.23.75-11.26-1.4-22.55-2.41-33.94-2.12-10.05.26-20.12.07-30.18.04-2,0-4.15.25-5.99-.36-7.66-2.55-15.27.48-22.93.03-3.68-.21-7.56.55-11.31.13-8.99-.99-18.1-2.01-26.98-.84-8.05,1.06-16.01.66-24,1.07-3.01.16-5.75-.53-8.37-1.91-2.08,1.99-4.25,3.9-6.22,5.99-11.17,11.83-21.48,24.37-30.96,37.58-13.9,19.37-26.02,39.8-35.78,61.58,5,.9,9.95,2.25,15.06.24Z"/>
  <path class="cls-6" d="M1237.78,1276.03c-2.07-1.19-4.34-2.02-6.89-2.34-.87-.11-1.91-.23-2.52-.76-7.46-6.33-17.8-6.47-25.67-11.97-2.13-1.49-4.83-2.46-7.4-2.91-2.75-.49-5.17-1.46-7.19-3.19-3.54-3.04-7.82-4.31-12.17-5.02-7.49-1.24-13.98-4.91-20.83-7.72-2.67-1.09-5.32-2.34-8.1-3.02-7.68-1.88-14.18-7.46-22.57-7.14-.79.03-1.85-.43-2.37-1.03-2.3-2.64-5.38-2.53-8.46-3.09-1.89-.35-3.95-.68-5.6-1.59-1.65-.91-2.89-2.4-3.15-5.06h0c-13.27,5.21-26.41,10.77-40.27,14.35-31.25,8.06-62.8,10.49-94.91,6.37-54.62-7.01-101.46-29.95-140.83-68.22-7.18-6.98-13.54-14.8-20.28-22.24-.17.07-.34.14-.5.21-.65.29-1.29.61-1.94.85-.83.31-1.69.48-2.63.3-6.91-1.34-13.97-.37-20.88-1.28-12.56-1.64-25.23-.98-37.83-1.96-9.66-.75-19.4-.63-29.11-.66-18.49-.06-36.98.04-55.48.07,10.51,24.8,24.07,47.87,39.93,69.59,6.97,9.55,13.96,19.11,22.48,27.4,5.34-.54,10.65-1.08,15.93.64,1.23.4,2.67.35,3.99.24,10.52-.91,20.99.6,31.33,1.65,15.43,1.56,31.07,1.56,46.29,5.04,9.93-1.46,19.21,3.72,29.12,2.87,2.33-.2,4.84.71,7.16,1.45,5.58,1.76,11.21,2.88,17.09,2.47.88-.06,1.92-.2,2.65.17,5.56,2.74,11.76,2.17,17.6,3.47,10.17,2.27,20.44,4.12,30.66,6.2,9.99,2.03,20.01,3.97,29.95,6.23,11.02,2.51,21.97,5.35,32.95,8.04,5.6,1.37,11.18,2.89,16.83,4.03,4.24.86,7.64,3.59,11.79,4.65,3.44.88,6.72,2.4,10.41,2.13.86-.06,1.94-.03,2.6.42,6.48,4.37,14.39,4.42,21.36,7.21,5.55,2.22,11.08,4.57,16.5,7.08,3.72,1.72,7.67,1.35,11.48,3,7.33,3.19,14.62,6.42,21.86,9.85,6.76,3.2,13.99,5.43,21.04,8,2.11.77,4,1.84,5.95,2.91,4.86,2.69,9.74,5.53,15.52,5.83,1.65.09,2.33,1.1,2.49,2.6,1.47-.48,2.99-.83,4.39-1.46,21.56-9.64,42.18-20.98,61.55-34.52,11.29-7.89,22.46-15.95,32.35-25.61-.87-.89-1.77-1.73-2.72-2.49s-1.93-1.45-2.96-2.05Z"/>
  <path class="cls-6" d="M1142.67,1339.55c-5.79-.3-10.66-3.14-15.52-5.83-1.95-1.08-3.85-2.15-5.95-2.91-7.05-2.57-14.28-4.79-21.04-8-7.24-3.43-14.53-6.66-21.86-9.85-3.81-1.66-7.75-1.28-11.48-3-5.41-2.51-10.94-4.86-16.5-7.08-6.97-2.79-14.88-2.83-21.36-7.21-.67-.45-1.74-.48-2.6-.42-3.69.27-6.96-1.24-10.41-2.13-4.15-1.07-7.55-3.8-11.79-4.65-5.65-1.14-11.22-2.66-16.83-4.03-10.98-2.69-21.93-5.53-32.95-8.04-9.94-2.26-19.96-4.2-29.95-6.23-10.22-2.08-20.49-3.93-30.66-6.2-5.84-1.3-12.04-.73-17.6-3.47-.74-.36-1.77-.23-2.65-.17-5.88.41-11.52-.71-17.09-2.47-2.32-.73-4.82-1.65-7.16-1.45-9.92.85-19.19-4.33-29.12-2.87-15.23-3.47-30.86-3.48-46.29-5.04-10.35-1.05-20.82-2.56-31.33-1.65-1.32.11-2.76.17-3.99-.24-5.27-1.72-10.59-1.18-15.93-.64.35.56.65,1.18,1.07,1.69,14.71,17.82,31.94,33.06,50.15,47.05,25.92,19.92,54.06,36.27,84.34,48.81,35.55,14.72,72.43,23.88,110.82,27.07,27.07,2.25,54.07,1.73,80.96-1.87,22.06-2.96,43.73-7.86,64.82-15.09,10.25-3.52,20.76-6.36,30.41-11.5-.17-1.5-.85-2.51-2.49-2.6Z"/>
  <path class="cls-1" d="M1362.95,921.59c-1.8,2.59-4.24,1.92-6.63,1.25-2.14-.6-4.24-1.9-6.37-1.92-12.27-.12-23.37-5.25-34.78-8.55-13.84-4-27.79-7.28-41.82-10.32-3.1-.67-5.74-2.25-8.84-2.87-13.25-2.65-26.45-5.53-39.61-8.56-2.45-.56-4.82-.72-7.26-.76,3.58,9.12,8.06,17.84,11.39,27.07,10.63,29.5,15.45,59.87,14.55,91.22-.26,8.92-1.54,17.75-1.73,26.66.89-.07,2.05.2,2.62-.26,3.97-3.22,7.16-2.31,10.1,1.47.87,1.12,2.29,1.69,3.5.51,2.64-2.55,4.38-.8,6.08,1.12,3.11,3.51,6.75,5.76,11.68,5.23,1.88-.2,3.39.66,4.9,1.74,1.25.89,2.84,2.12,4.15,1.97,7.39-.84,12.74,4.05,19.04,6.24,3.94,1.37,8.19,1.84,12.14,3.36,5.93,2.27,12.12,3.88,17.69,7.05.76.43,1.85,1.14,2.44.89,5.03-2.09,8.42,1.29,11.8,3.74,2.98,2.16,6.26-.21,8.81,1.24,2.49,1.42,3.31,5.51,7.35,4.64.92-1.32,1.12-2.87,1.42-4.41,4.05-20.82,6-41.86,6.47-63.06.39-17.19-.73-34.31-2.9-51.33-1.42-11.21-2.64-22.52-6.18-33.36Z"/>
  <path class="cls-2" d="M1356.78,1069.09c-2.55-1.45-5.83.93-8.81-1.24-3.38-2.46-6.77-5.83-11.8-3.74-.59.25-1.68-.46-2.44-.89-5.57-3.17-11.76-4.78-17.69-7.05-3.95-1.52-8.2-1.99-12.14-3.36-6.3-2.19-11.65-7.08-19.04-6.24-1.3.15-2.9-1.08-4.15-1.97-1.51-1.07-3.02-1.94-4.9-1.74-4.93.53-8.56-1.72-11.68-5.23-1.7-1.92-3.44-3.67-6.08-1.12-1.21,1.17-2.63.61-3.5-.51-2.94-3.78-6.13-4.69-10.1-1.47-.57.46-1.73.19-2.62.26-1.99,9.39-3.65,18.86-6.02,28.15-7.65,30.03-20.9,57.44-39.24,82.4-.79,1.07-1.4,2.27-2.09,3.41,3.43.15,6.75.77,9.99,1.63,1.08.29,2.15.6,3.22.94.31.1.62.2.93.3.97.32,1.94.64,2.9.99,3.3,1.17,6.56,2.44,9.85,3.6,10.7,3.76,21.38,7.61,31.87,11.93,16.25,6.7,33.07,12.04,48.75,20.15,4.71,2.44,9.69,4.36,14.55,6.52.67-.89,1.42-1.72,1.99-2.67,20.3-33.43,34.84-69.21,43.81-107.25.86-3.64,2.32-7.26,1.78-11.16-4.04.87-4.86-3.23-7.35-4.64Z"/>
  <path class="cls-3" d="M1335.69,541.1c-24.45,17.5-36.61,42.03-36.93,72.23.67.05,1.58-.18,1.97.18,6.77,6.1,16.47,2.74,23.67,7.37,6.76-1.72,12.95,2.53,19.61,1.84,2.33-.24,4.36.86,6.47,1.52,3.82,1.19,7.49,2.93,11.66,2.54,1.65-.16,3.02.59,4.29,1.58.91.71,2.03,1.23,3.11.75,5.09-2.27,9.37,1.02,14,1.61,6.78.85,12.75,4.7,19.84,4.24,4.83-.32,9.39,2.23,14.28,2.92,16.03,2.27,31.58,6.97,47.33,10.65.85.2,1.64.7,2.45,1.07,7.96-15.95,9.64-32.79,6.86-50.19-10.46-65.35-84.79-96.82-138.6-58.3Z"/>
  <path class="cls-1" d="M636.82,957.44c2.26-.23,4.53-.32,6.8-.35,2.02-.03,4.05-.02,6.07-.03,2-.02,4-.06,6-.19,12.57-.85,25.19-.67,37.73-1.47,8.48-.54,16.98-.56,25.42-.65,4.84-.05,10.03-.96,14.95.7,1.41.48,3.15.39,4.66.12,3.3-.59,6.58-.56,9.86-.36,1.49.09,2.98.22,4.47.35,1.36.12,2.72.23,4.08.31,1.36.08,2.72.13,4.08.12h0s0,0,0,0c3.06-12.53,5.96-25.09,10.35-37.25,7.07-19.57,16.37-38,28.12-55.17,3.49-5.1,7.21-10.05,10.82-15.07-.69-.28-1.38-.55-2.08-.8h-.03c-.69-.25-1.39-.46-2.11-.62-.49-.11-.99-.19-1.51-.24-7.66-.76-15.42.77-23.03-1.13-.96-.24-2.13.47-3.22.63-5.31.81-10.63,1.11-15.89-.23-2.67-.68-5.22-.67-7.89.06-4.37,1.19-8.81,1.09-13.2.08-1.31-.3-2.56-.8-3.92-.53-6.28,1.23-12.66.79-19,1.15-10.42.59-20.93-1.2-31.29,1.27-1.71.41-3.52,0-5.26-.59-1.23-.42-2.81-.93-3.89-.51-5.11,2.01-10.06.66-15.06-.24-16.44,35.47-27.15,72.53-31.16,111.47.86-.2,1.73-.35,2.6-.49.12-.02.24-.04.36-.06.71-.11,1.42-.19,2.14-.26Z"/>
  <path class="cls-1" d="M808.16,847.69c.7.25,1.38.52,2.08.8h0c-.69-.28-1.38-.55-2.08-.8Z"/>
  <path class="cls-1" d="M808.14,847.68c-.69-.24-1.39-.45-2.11-.61.72.16,1.42.37,2.11.61Z"/>
  <path class="cls-1" d="M808.16,847.69h-.03s.03,0,.03,0Z"/>
  <path class="cls-6" d="M1253.25,1168.15c-10.48-4.32-21.17-8.17-31.87-11.93-3.29-1.16-6.56-2.43-9.85-3.6-.96-.34-1.93-.67-2.9-.99-.31-.1-.62-.2-.93-.3-1.07-.34-2.14-.65-3.22-.94-3.24-.86-6.55-1.48-9.99-1.63-5.09,5.87-10.02,11.89-15.3,17.57-20.4,21.95-44.01,39.63-70.98,52.76-1.18.57-2.24,1.39-3.35,2.1.26,2.67,1.5,4.16,3.15,5.06,1.65.91,3.71,1.24,5.6,1.59,3.08.56,6.16.45,8.46,3.09.52.6,1.58,1.06,2.37,1.03,8.39-.33,14.89,5.26,22.57,7.14,2.78.68,5.43,1.93,8.1,3.02,6.85,2.81,13.34,6.48,20.83,7.72,4.35.72,8.63,1.99,12.17,5.02,2.02,1.73,4.43,2.7,7.19,3.19,2.57.46,5.27,1.43,7.4,2.91,7.88,5.5,18.21,5.64,25.67,11.97.62.52,1.65.65,2.52.76,2.55.32,4.82,1.14,6.89,2.34,1.03.6,2.02,1.29,2.96,2.05s1.85,1.6,2.72,2.49c1.76-1.35,3.63-2.58,5.26-4.07,13.51-12.36,26.26-25.43,37.94-39.55,11-13.32,20.89-27.41,29.9-42.13-4.86-2.16-9.84-4.08-14.55-6.52-15.68-8.11-32.49-13.45-48.75-20.15Z"/>
  <path class="cls-6" d="M1204.48,1150.39c-3.24-.86-6.55-1.48-9.99-1.63h0c3.43.15,6.75.77,9.99,1.63Z"/>
  <path class="cls-6" d="M715.67,1148.92c9.71.03,19.45-.09,29.11.66,12.6.97,25.27.32,37.83,1.96,6.92.9,13.97-.07,20.88,1.28.94.18,1.8,0,2.63-.3.66-.24,1.3-.56,1.94-.85.17-.07.34-.15.5-.21h0s0,0,0,0c-7.96-11.55-16.15-22.93-22.72-35.39-11.84-22.45-20.19-46.08-24.66-71.07-.24-1.32-.32-2.66-1.18-3.78-2.43,2.43-5.19,3.13-8.45,1.77-1.22-.51-3.14-1.45-3.76-.96-6.9,5.44-14.09.22-21.09.72-7.34.53-14.75.13-22.13.11-2.22,0-4.47.21-6.61-.72-1.72-.74-3.59-.97-5.12.23-3.23,2.53-6.54,1.65-10.17,1.07-4.97-.8-10.18-1.86-14.98.96-1.3.76-2.45.41-3.79.32-6.15-.39-12.32-.68-18.48-.82-4.92-.12-9.17.14-13.15,3.01.12,9.22,2.27,18.14,4.06,27.1,5.17,25.87,12.89,50.95,23.86,74.99,18.49-.03,36.98-.13,55.48-.07Z"/>
  <path class="cls-6" d="M808.07,1151.67c.17-.07.34-.15.5-.21h0c-.17.07-.34.14-.5.21Z"/>
  <path class="cls-2" d="M645.43,1043.88c6.17.15,12.33.44,18.48.82,1.34.08,2.49.44,3.79-.32,4.8-2.82,10.01-1.76,14.98-.96,3.63.59,6.93,1.46,10.17-1.07,1.53-1.2,3.4-.97,5.12-.23,2.14.93,4.39.71,6.61.72,7.38.02,14.79.42,22.13-.11,7-.5,14.19,4.72,21.09-.72.62-.49,2.54.45,3.76.96,3.26,1.36,6.02.66,8.45-1.77-.54-5.98-.97-11.98-1.65-17.95-2.48-21.89-.95-43.62,2.49-65.29.1-.66.08-1.33.11-2-1.36.01-2.72-.04-4.08-.12-1.36-.08-2.72-.2-4.08-.31-1.49-.13-2.98-.26-4.47-.35-3.28-.2-6.56-.23-9.86.36-1.51.27-3.25.36-4.66-.12-4.93-1.66-10.11-.75-14.95-.7-8.43.08-16.94.11-25.42.65-12.54.8-25.15.63-37.73,1.47-2,.13-4,.18-6,.19-2.02.02-4.05,0-6.07.03-2.27.03-4.54.12-6.8.35-.71.07-1.43.16-2.14.26-.12.02-.24.04-.36.06-.87.14-1.73.29-2.6.49-2.79,17.7-2.63,35.54-2.38,53.38.17,11.82.61,23.62,2.93,35.26,3.97-2.88,8.23-3.13,13.15-3.01Z"/>
  <path class="cls-2" d="M643.63,957.09c-2.27.03-4.54.12-6.8.35,2.26-.23,4.53-.32,6.8-.35Z"/>
  <path class="cls-2" d="M634.32,957.77c.12-.02.24-.04.36-.06-.12.02-.24.04-.36.06Z"/>
  <path class="cls-2" d="M756.87,955.86c-1.36-.08-2.72-.2-4.08-.31,1.36.12,2.72.23,4.08.31Z"/>
  <path class="cls-2" d="M756.87,955.86c1.36.08,2.72.13,4.08.12h0c-1.36.01-2.72-.04-4.08-.12Z"/>
  <path class="cls-3" d="M1417.66,637.87c-4.9-.69-9.46-3.24-14.28-2.92-7.09.46-13.05-3.38-19.84-4.24-4.63-.58-8.91-3.87-14-1.61-1.08.48-2.2-.04-3.11-.75-1.27-.99-2.63-1.74-4.29-1.58-4.17.39-7.84-1.35-11.66-2.54-2.11-.65-4.14-1.76-6.47-1.52-6.66.7-12.86-3.56-19.61-1.84-7.2-4.63-16.9-1.27-23.67-7.37-.39-.35-1.3-.13-1.97-.18.2,28.61,10.99,52.23,33.65,69.95,23.38,18.28,49.73,23.2,78.3,15.86,18.28-4.69,32.3-16.09,44.37-30.05,5.05-5.85,10.36-11.66,12.35-19.5-.82-.36-1.6-.87-2.45-1.07-15.75-3.68-31.29-8.38-47.33-10.65Z"/>
  <path class="cls-6" d="M901.37,356.21l48.74-81.15h-74.77c-1.1,1.45-2.7,1.34-4.25,1.33-10.9-.05-21.8-.11-32.7-.17-8.59-.97-17.19,0-25.78-.11-7.28-.1-14.56-.01-21.85,0-.44.08-.88.21-1.32.22-37.99.78-75.95,2.19-113.84,5.33-27.18,2.25-54.22,5.36-80.96,10.8-56.34,11.46-108.21,33.38-155.11,66.72-12.34,8.77-24.19,18.22-34.2,29.72.67,1.1,1.54,1.34,2.81.95,11.95-3.66,24.27-5.02,36.66-6.29,5.01-.51,10.23-1.72,15.15-1.78,10.32-.14,20.16-3.17,30.44-3.61,10.36-.44,20.87-.74,31.08-3.27,5.42-1.34,11.09-1.07,16.56-1.46,13.3-.95,26.45-3.38,39.89-3.34,7.19.02,14.61-.57,21.83-2.05,5-1.03,10.23-1.09,15.24-1.35,9.11-.47,18.15-2.56,27.32-1.69,6.97.66,13.75-.99,20.6-1.66,2.44-.24,4.63-.85,7.11.04,3.35,1.21,6.49-1.02,9.85-1.17,11.42-.48,22.86-.36,34.26-2.05,3.48-.51,7.38-.62,11.05-.47,15.2.64,30.26-1.99,45.46-1.51,15.28.48,30.51-1.66,45.83-1.44,3.9.06,7.81-.59,11.77.1,1.92.33,4.13.24,5.96-.38,2.87-.97,5.8-1.26,8.6-.79,9.32,1.56,18.55.41,27.85.12,10.2-.31,20.45-.25,30.71.41Z"/>
  <path class="cls-6" d="M1605.02,397.15c-11.41-12.6-24.59-23.46-38.42-33.35-63.3-45.23-133.11-73.12-211.17-79.21-28.3-2.21-56.61-4.12-84.96-5.03-37.53-1.21-75.07-1.87-112.61-2.63-19.88-.4-39.77-.53-59.66-.78-15.88-.01-31.76.02-47.63-.04-13.65-.05-27.29-.21-40.94-.34-1.57-.01-3.13-.2-4.63.45-15.4.06-30.8.13-46.2.19-1.56,0-3.16.12-4.27-1.34h-4.44l-48.73,81.14h0c.45.04.91.06,1.36.09,6.4.44,13.28-.51,19.94-.65,3.32-.07,6.69-.48,9.93.93,1.47.64,3.03.09,4.58-.28,4.84-1.13,9.76-1.18,14.57.02,2.23.55,4.47.93,6.62.57,10.2-1.68,20.39-.06,30.52.29,17.05.59,34.17.15,51.12,1.5,10.41.83,20.97-.54,31.24,2.01,6.41-2.41,12.74.39,19.12.29,13.38-.21,26.63,1.24,39.93,2.41,5.84.52,11.8,1.68,17.81.59,2.37-.43,4.79.76,7.18,1.16,7.47,1.25,15.03,1.15,22.53,2.18,7,.96,14.19.69,21.27,1.67,12.97,1.8,26.21.61,39.1,3.78,3.39.83,7.12.22,10.7.29,2.89.06,5.71.36,8.6.85,8.31,1.4,16.7,2.34,25.1,3.08,2.72.24,5.25.98,7.84,1.52,3.04.63,5.85.86,9.09.43,4.49-.59,9.23.6,13.84,1.16,9.68,1.19,19.33,2.57,29.03,3.63,2.27.25,4.38.82,6.48,1.52,2.35.79,4.69,1.3,7.2,1.26,9.61-.14,18.93,2.25,28.39,3.46,11.44,1.46,22.78,3.57,34.28,4.7,7.04.69,14.03,2.31,20.91,4.04,5.65,1.42,11.44,1.83,17.13,2.37,13.11,1.23,25.85,4.14,38.62,7.02.65.15,1.28.66,1.9.62,9.75-.68,18.43,4.76,28.15,4.77,5.48,0,10.87,2.06,16.28,3.16,8.48,1.73,17.07,2.85,25.54,4.64,2.24.47,4.43.9,6.18,2.3,1.96,1.58,3.8,2.02,6.16.95.93-.43,2.3-.53,3.25-.19,8.16,2.98,17.13,3.01,25.02,6.85,3.42,1.67,7.05.73,10.56,1.24,5.61.82,10.33,3.94,15.69,5.31,1.5.38,2.95,1.41,3.99-.66-9.33-14.7-21.47-27.13-33.06-39.93Z"/>
  <path class="cls-6" d="M1699.64,562.29c-2.01.05-3.94-.2-5.91-.82-13.9-4.37-27.84-8.62-41.95-12.29-13.7-3.56-27.29-7.56-41.02-11.01-18.08-4.56-36.21-8.95-54.41-12.95-.38-.08-.77-.19-1.17-.3-.59-.18-1.21-.38-1.83-.57-.28-.08-.57-.16-.86-.23-2.02-.5-4.12-.61-6.1,1.09-.96-1.21-1.97-2.39-2.88-3.65-31.33-43.16-71.49-74.62-122.01-92.56-38.69-13.73-78.85-19.7-119.54-22.03-30.57-1.75-61.24-2.22-91.87-2.61-51.88-.68-103.78-.85-155.67-1.22-36.45-.26-72.9-.31-109.36.16-24.09.3-48.17.38-72.26.47l28.57-47.56c.45.03.9.05,1.36.08,6.4.44,13.27-.51,19.94-.65,3.32-.08,6.69-.48,9.93.92,1.47.64,3.02.09,4.58-.27,4.83-1.14,9.76-1.18,14.57.01,2.23.56,4.47.93,6.62.58,10.2-1.68,20.39-.06,30.52.29,17.05.59,34.17.15,51.12,1.5,10.41.82,20.98-.55,31.25,2,6.41-2.4,12.74.4,19.11.3,13.38-.21,26.64,1.23,39.94,2.41,5.84.52,11.8,1.68,17.8.59,2.37-.44,4.79.76,7.18,1.16,7.46,1.25,15.03,1.14,22.52,2.18,7,.96,14.19.69,21.27,1.67,12.97,1.8,26.21.61,39.1,3.78,3.38.83,7.12.22,10.69.29,2.89.06,5.72.36,8.61.85,8.3,1.39,16.7,2.34,25.09,3.07,2.72.24,5.25.98,7.85,1.52,3.04.64,5.85.86,9.09.43,4.49-.59,9.23.6,13.84,1.17,9.68,1.18,19.34,2.56,29.03,3.63,2.27.24,4.38.81,6.48,1.52,2.35.79,4.68,1.3,7.2,1.26,9.61-.15,18.93,2.25,28.39,3.46,11.44,1.45,22.78,3.57,34.28,4.69,7.03.69,14.02,2.31,20.9,4.04,5.66,1.43,11.44,1.84,17.13,2.37,13.11,1.23,25.85,4.14,38.62,7.02.65.15,1.28.67,1.89.62,9.76-.67,18.44,4.76,28.15,4.78,5.48.01,10.88,2.06,16.28,3.16,8.49,1.72,17.07,2.85,25.54,4.63,2.24.48,4.43.9,6.18,2.3,1.96,1.58,3.8,2.02,6.15.95.94-.43,2.31-.54,3.26-.19,8.16,2.98,17.13,3.01,25.02,6.85,3.42,1.67,7.05.72,10.56,1.24,5.61.81,10.32,3.94,15.68,5.31,1.51.38,2.96,1.4,3.99-.66,2.01.33,2.86,1.97,3.89,3.41,26.22,36.81,44.82,77.27,57.63,120.49.12.41.03.88.04,1.32Z"/>
  <path class="cls-6" d="M901.36,356.21l-28.56,47.56c-33.17.14-66.35.3-99.52,1.13-33.08.84-66.17.91-99.15,4.27-27.15,2.78-54.09,6.73-80.41,14.08-29.16,8.14-55.98,21.07-79.77,39.95-5.95,4.72-11.7,9.67-17.54,14.52-.98-1.72-2.34-2.55-3.82-2.8-.21-.03-.42-.06-.64-.07-1.03-.06-2.11.14-3.14.5-9.22,3.17-18.93,2.77-28.33,3.38-9.78.64-19.24,3.03-29.05,3.58-9.38.53-18.83,2.48-28.26,3.76-5.46.74-11.02,1.24-16.48,1.88-5.99.7-11.69,2.84-17.63,3.09-6.25.27-12.29,1.49-18.42,2.43-8.43,1.28-16.8,4.7-25.53,1.72,6.61-15.73,15.41-30.23,25.29-44.06,16.16-22.62,34.55-43.3,54.91-62.24.68,1.11,1.54,1.34,2.82.95,11.95-3.66,24.26-5.02,36.66-6.29,5.01-.51,10.23-1.71,15.15-1.78,10.32-.14,20.16-3.17,30.44-3.61,10.36-.44,20.87-.74,31.08-3.27,5.42-1.35,11.1-1.07,16.57-1.46,13.3-.95,26.45-3.38,39.89-3.34,7.19.03,14.61-.56,21.83-2.04,5-1.03,10.23-1.09,15.24-1.35,9.11-.47,18.15-2.56,27.32-1.69,6.97.66,13.75-.99,20.6-1.66,2.44-.24,4.63-.85,7.11.04,3.36,1.21,6.49-1.02,9.85-1.17,11.42-.48,22.86-.36,34.26-2.04,3.48-.52,7.38-.62,11.05-.47,15.2.65,30.26-1.99,45.46-1.51,15.28.48,30.51-1.67,45.83-1.44,3.9.05,7.8-.59,11.77.09,1.92.34,4.12.24,5.96-.38,2.86-.97,5.8-1.26,8.6-.79,9.31,1.56,18.54.41,27.85.12,10.2-.31,20.45-.25,30.71.41Z"/>
</svg>