<?xml version="1.0" encoding="UTF-8"?>
<svg id="Layer_1" xmlns="http://www.w3.org/2000/svg" viewBox="0 0 2000 2000">
  <defs>
    <style>
      .cls-1 {
        fill: #9da4cb;
      }

      .cls-2 {
        fill: #a8c5dd;
      }

      .cls-3 {
        fill: #a0b2d2;
      }

      .cls-4 {
        fill: #a0bfd9;
      }
    </style>
  </defs>
  <path class="cls-4" d="M596.95,546.12c16.69,12.43,33.43,24.82,50.08,37.31,80.68,60.57,161.33,121.16,241.99,181.75,35.45,26.63,70.87,53.3,106.35,79.89,5.72,4.29,3.9,4.25,9.36.15,99.06-74.36,198.1-148.76,297.13-223.16,31.72-23.83,63.42-47.68,95.14-71.5,1.71-1.29,3.56-2.39,5.35-3.58.04,2.69.12,5.39.12,8.08,0,140.27,0,280.54.01,420.81,0,2.33.14,4.66.22,6.99-.06.23-.16.44-.31.63-10.11,7.46-20.27,14.84-30.32,22.38-82.29,61.78-164.56,123.58-246.83,185.38-40.2,30.2-80.39,60.41-120.58,90.61-.57.43-1.22.79-1.73,1.29-1.85,1.85-3.45,1.68-5.54.07-8.39-6.47-16.93-12.74-25.4-19.1-81.84-61.47-163.68-122.95-245.51-184.42-41.49-31.17-82.98-62.33-124.48-93.49-1.28-.96-2.66-1.8-4-2.7-.81-.83-1.62-1.66-2.43-2.49,2.28-2.04,1.2-4.74,1.2-7.11.06-140.26.05-280.53.06-420.79,0-2.33.08-4.67.13-7Z"/>
  <path class="cls-1" d="M595.57,981.02c.81.83,1.62,1.66,2.43,2.49-.05,2.51-.16,5.03-.16,7.54,0,185.24,0,370.48-.02,555.72,0,8.52,1.03,7.49-7.4,7.49-75.31.02-150.63.04-225.94,0-50.68-.02-88.62-34.45-99-76.21-1.86-7.5-3.02-15.11-3.02-22.88,0-239.32,0-478.64.02-717.97,0-1.79.21-3.57.33-5.36,1.34.89,2.72,1.73,4,2.69,20.67,15.52,41.33,31.07,62,46.6,79.53,59.72,159.05,119.46,238.61,179.14,9.32,6.99,18.4,14.33,28.14,20.74Z"/>
  <path class="cls-4" d="M1402.39,983.49c.15-.19.26-.4.31-.63.75-.49,1.52-.93,2.24-1.47,38.04-28.56,76.07-57.14,114.11-85.7,54.41-40.86,108.82-81.72,163.24-122.57,18.38-13.8,36.79-27.54,55.19-41.31.11,1.97.31,3.93.31,5.9.01,238.95.02,477.91,0,716.86,0,47.85-35.85,89.96-83.22,97.92-6.74,1.13-13.53,1.71-20.36,1.71-74.59,0-149.18,0-223.77,0-1.08,0-2.16.01-3.24,0q-4.65-.06-4.71-4.77c-.02-1.26,0-2.52,0-3.77,0-184.87,0-369.75,0-554.62,0-2.51-.07-5.03-.1-7.54Z"/>
  <path class="cls-2" d="M1737.48,731.81c-18.4,13.77-36.81,27.52-55.19,41.31-54.42,40.85-108.83,81.71-163.24,122.57-38.04,28.57-76.07,57.14-114.11,85.7-.71.54-1.49.98-2.24,1.47-.07-2.33-.21-4.66-.21-6.99-.01-140.27,0-280.54-.01-420.81,0-2.69-.08-5.39-.12-8.08,9.32-7.89,19.33-14.88,29.06-22.24,21.34-16.13,42.82-32.08,64.17-48.19,22.61-17.07,48.02-27.26,76.14-30.08,60.34-6.06,117.83,23.87,147.5,77.53,9.92,17.94,15.95,37.14,17.86,57.64.5,5.38.78,10.73.79,16.11.03,42.9.02,85.81.02,128.71,0,1.79.21,3.6-.39,5.34Z"/>
  <path class="cls-3" d="M595.57,981.02c-9.75-6.42-18.82-13.75-28.14-20.74-79.56-59.68-159.08-119.41-238.61-179.14-20.67-15.52-41.33-31.07-62-46.6-1.28-.96-2.67-1.8-4-2.69-.58-1.75-.4-3.56-.4-5.34,0-43.26-.81-86.55.19-129.79,1.43-61.67,30.07-107.3,84.92-135.76,22.37-11.6,46.64-16.05,71.89-15.03,31.8,1.28,60.23,11.78,85.6,30.86,29.54,22.22,59.12,44.38,88.67,66.57,1.14.86,2.19,1.83,3.28,2.75-.04,2.33-.13,4.67-.13,7,0,140.26,0,280.53-.06,420.79,0,2.37,1.08,5.07-1.2,7.11Z"/>
</svg>