<?xml version="1.0" encoding="UTF-8"?>
<svg id="Layer_1" xmlns="http://www.w3.org/2000/svg" viewBox="0 0 2000 2000">
  <defs>
    <style>
      .cls-1 {
        fill: #a3c1d9;
      }
    </style>
  </defs>
  <path class="cls-1" d="M1047.73,1340.01c-77.52,55.81-128.18,143.06-226.56,185.71,3.56-52.53,6.21-96.84,9.64-141.09,4.01-51.82,11.14-103.53,12.22-155.38.69-33.48,14.77-54.7,38.43-76.18,185.36-168.27,369.72-337.65,554.24-506.85,10.39-9.53,19.52-20.44,29.23-30.71-2.4-4.45-4.8-8.91-7.2-13.36-18.15,7.14-37.95,11.64-54.21,21.81-226.07,141.36-452.66,281.95-676.57,426.69-47.17,30.49-86.71,38.1-139.36,18.51-80.56-29.97-164.5-50.75-245.88-78.72-20.45-7.03-36.6-26.6-54.72-40.4,17.33-17.45,31.53-42.57,52.49-51.1,146.8-59.74,294.91-116.28,442.77-173.43,272.78-105.43,545.4-211.27,818.96-314.65,25.13-9.5,61.09-11.93,83.89-.87,32.99,15.99,30.58,53.86,23.38,87.87-59.13,279.4-117.93,558.88-176.93,838.31-13.27,62.84-25.73,125.88-40.67,188.33-18.23,76.19-61.27,93.51-125.55,47.8-99.18-70.53-196.15-144.18-294.11-216.42-7.59-5.6-15.65-10.57-23.52-15.86Z"/>
</svg>